<svg width="252" height="252" viewBox="0 0 252 252" fill="none" xmlns="http://www.w3.org/2000/svg">
<g filter="url(#filter0_d)">
<circle cx="126" cy="122" r="122" fill="#3A3A3A"/>
<path d="M126 242.395C141.81 242.395 157.466 239.281 172.073 233.23C186.68 227.18 199.952 218.312 211.132 207.132C222.312 195.952 231.18 182.68 237.23 168.073C243.281 153.466 246.395 137.81 246.395 122H126L126 242.395Z" fill="#F3E0B0"/>
<path d="M126 242.395C110.19 242.395 94.5339 239.281 79.9269 233.23C65.32 227.18 52.0477 218.312 40.8681 207.132C29.6884 195.952 20.8202 182.68 14.7698 168.073C8.71936 153.466 5.60526 137.81 5.60526 122L126 122L126 242.395Z" fill="#F7DBEC"/>
<path d="M126 1.60526C141.81 1.60526 157.466 4.71937 172.073 10.7698C186.68 16.8202 199.952 25.6884 211.132 36.8681C222.312 48.0478 231.18 61.32 237.23 75.9269C243.281 90.5339 246.395 106.19 246.395 122L126 122V1.60526Z" fill="#FFF6DF"/>
<path d="M5.60526 122C5.60527 90.0693 18.2897 59.4465 40.8681 36.8681C63.4465 14.2897 94.0693 1.60526 126 1.60526V122L5.60526 122Z" fill="#A57E56"/>
<path d="M126 216.711L91.245 125.211L160.755 125.211L126 216.711Z" fill="#424242"/>
<ellipse cx="126.401" cy="103.539" rx="37.3224" ry="31.3026" fill="#939393"/>
<ellipse cx="92.2895" cy="123.605" rx="11.2368" ry="8.82895" fill="#939393"/>
<ellipse cx="157.303" cy="123.605" rx="11.2368" ry="8.82895" fill="#939393"/>
<ellipse cx="142.855" cy="132.434" rx="11.2368" ry="8.82895" fill="#939393"/>
<ellipse cx="122.789" cy="134.842" rx="11.2368" ry="8.82895" fill="#939393"/>
<ellipse cx="105.132" cy="130.829" rx="11.2368" ry="8.82895" fill="#939393"/>
<ellipse cx="126.401" cy="63.4079" rx="37.3224" ry="31.3026" fill="#CDCDCD"/>
<ellipse cx="92.2895" cy="83.4737" rx="11.2368" ry="8.82895" fill="#CDCDCD"/>
<ellipse cx="157.303" cy="83.4737" rx="11.2368" ry="8.82895" fill="#CDCDCD"/>
<ellipse cx="142.855" cy="92.3026" rx="11.2368" ry="8.82895" fill="#CDCDCD"/>
<ellipse cx="122.789" cy="94.7105" rx="11.2368" ry="8.82895" fill="#CDCDCD"/>
<ellipse cx="105.132" cy="90.6974" rx="11.2368" ry="8.82895" fill="#CDCDCD"/>
</g>
<defs>
<filter id="filter0_d" x="0" y="0" width="252" height="252" filterUnits="userSpaceOnUse" color-interpolation-filters="sRGB">
<feFlood flood-opacity="0" result="BackgroundImageFix"/>
<feColorMatrix in="SourceAlpha" type="matrix" values="0 0 0 0 0 0 0 0 0 0 0 0 0 0 0 0 0 0 127 0"/>
<feOffset dy="4"/>
<feGaussianBlur stdDeviation="2"/>
<feColorMatrix type="matrix" values="0 0 0 0 0 0 0 0 0 0 0 0 0 0 0 0 0 0 0.25 0"/>
<feBlend mode="normal" in2="BackgroundImageFix" result="effect1_dropShadow"/>
<feBlend mode="normal" in="SourceGraphic" in2="effect1_dropShadow" result="shape"/>
</filter>
</defs>
</svg>
