<svg width="1843" height="676" viewBox="0 0 1843 676" fill="none" xmlns="http://www.w3.org/2000/svg">
<rect x="108.193" y="590.599" width="46.9" height="8.9" rx="4.45" transform="rotate(-40.6115 108.193 590.599)" fill="#F7DBEC"/>
<rect x="108.193" y="590.599" width="46.9" height="8.9" rx="4.45" transform="rotate(-40.6115 108.193 590.599)" fill="#F7DBEC"/>
<rect x="108.193" y="590.599" width="46.9" height="8.9" rx="4.45" transform="rotate(-40.6115 108.193 590.599)" stroke="black" stroke-width="0.1"/>
<rect x="845.831" y="141.487" width="46.9" height="8.9" rx="4.45" transform="rotate(-166.731 845.831 141.487)" fill="#F7DBEC"/>
<rect x="845.831" y="141.487" width="46.9" height="8.9" rx="4.45" transform="rotate(-166.731 845.831 141.487)" fill="#F7DBEC"/>
<rect x="845.831" y="141.487" width="46.9" height="8.9" rx="4.45" transform="rotate(-166.731 845.831 141.487)" stroke="black" stroke-width="0.1"/>
<rect x="547.26" y="310.071" width="46.9" height="8.9" rx="4.45" transform="rotate(44.0636 547.26 310.071)" fill="#F7DBEC"/>
<rect x="547.26" y="310.071" width="46.9" height="8.9" rx="4.45" transform="rotate(44.0636 547.26 310.071)" fill="#F7DBEC"/>
<rect x="547.26" y="310.071" width="46.9" height="8.9" rx="4.45" transform="rotate(44.0636 547.26 310.071)" stroke="black" stroke-width="0.1"/>
<rect x="1591.63" y="511.51" width="46.9" height="8.9" rx="4.45" transform="rotate(-30.1584 1591.63 511.51)" fill="#F7DBEC"/>
<rect x="1591.63" y="511.51" width="46.9" height="8.9" rx="4.45" transform="rotate(-30.1584 1591.63 511.51)" fill="#A57E56"/>
<rect x="1591.63" y="511.51" width="46.9" height="8.9" rx="4.45" transform="rotate(-30.1584 1591.63 511.51)" stroke="black" stroke-width="0.1"/>
<rect x="414.898" y="229.055" width="46.9" height="8.9" rx="4.45" transform="rotate(83.5044 414.898 229.055)" fill="#F7DBEC"/>
<rect x="414.898" y="229.055" width="46.9" height="8.9" rx="4.45" transform="rotate(83.5044 414.898 229.055)" fill="#F3E0B0"/>
<rect x="414.898" y="229.055" width="46.9" height="8.9" rx="4.45" transform="rotate(83.5044 414.898 229.055)" stroke="black" stroke-width="0.1"/>
<rect x="380.844" y="505.378" width="46.9" height="8.9" rx="4.45" transform="rotate(-138.775 380.844 505.378)" fill="#F7DBEC"/>
<rect x="380.844" y="505.378" width="46.9" height="8.9" rx="4.45" transform="rotate(-138.775 380.844 505.378)" fill="#F3E0B0"/>
<rect x="380.844" y="505.378" width="46.9" height="8.9" rx="4.45" transform="rotate(-138.775 380.844 505.378)" stroke="black" stroke-width="0.1"/>
<rect x="1748.83" y="130.98" width="46.9" height="8.9" rx="4.45" transform="rotate(24.808 1748.83 130.98)" fill="#F7DBEC"/>
<rect x="1748.83" y="130.98" width="46.9" height="8.9" rx="4.45" transform="rotate(24.808 1748.83 130.98)" fill="#F3E0B0"/>
<rect x="1748.83" y="130.98" width="46.9" height="8.9" rx="4.45" transform="rotate(24.808 1748.83 130.98)" stroke="black" stroke-width="0.1"/>
<rect x="1273.02" y="262.055" width="46.9" height="8.9" rx="4.45" transform="rotate(83.5044 1273.02 262.055)" fill="#F7DBEC"/>
<rect x="1273.02" y="262.055" width="46.9" height="8.9" rx="4.45" transform="rotate(83.5044 1273.02 262.055)" fill="#F3E0B0"/>
<rect x="1273.02" y="262.055" width="46.9" height="8.9" rx="4.45" transform="rotate(83.5044 1273.02 262.055)" stroke="black" stroke-width="0.1"/>
<rect x="976.931" y="546.663" width="46.9" height="8.9" rx="4.45" transform="rotate(-66.8193 976.931 546.663)" fill="#F7DBEC"/>
<rect x="976.931" y="546.663" width="46.9" height="8.9" rx="4.45" transform="rotate(-66.8193 976.931 546.663)" fill="#F3E0B0"/>
<rect x="976.931" y="546.663" width="46.9" height="8.9" rx="4.45" transform="rotate(-66.8193 976.931 546.663)" stroke="black" stroke-width="0.1"/>
<rect x="1756.3" y="594.051" width="46.9" height="8.9" rx="4.45" transform="rotate(34.0159 1756.3 594.051)" fill="#F7DBEC"/>
<rect x="1756.3" y="594.051" width="46.9" height="8.9" rx="4.45" transform="rotate(34.0159 1756.3 594.051)" fill="#F3E0B0"/>
<rect x="1756.3" y="594.051" width="46.9" height="8.9" rx="4.45" transform="rotate(34.0159 1756.3 594.051)" stroke="black" stroke-width="0.1"/>
<rect x="1335.02" y="0.0553353" width="46.9" height="8.9" rx="4.45" transform="rotate(83.5044 1335.02 0.0553353)" fill="#F7DBEC"/>
<rect x="1335.02" y="0.0553353" width="46.9" height="8.9" rx="4.45" transform="rotate(83.5044 1335.02 0.0553353)" fill="#F3E0B0"/>
<rect x="1335.02" y="0.0553353" width="46.9" height="8.9" rx="4.45" transform="rotate(83.5044 1335.02 0.0553353)" stroke="black" stroke-width="0.1"/>
<rect x="40.5523" y="606.054" width="46.9" height="8.9" rx="4.45" transform="rotate(41.2388 40.5523 606.054)" fill="#F7DBEC"/>
<rect x="40.5523" y="606.054" width="46.9" height="8.9" rx="4.45" transform="rotate(41.2388 40.5523 606.054)" fill="#F3E0B0"/>
<rect x="40.5523" y="606.054" width="46.9" height="8.9" rx="4.45" transform="rotate(41.2388 40.5523 606.054)" stroke="black" stroke-width="0.1"/>
<rect x="1674.17" y="368.367" width="46.9" height="8.9" rx="4.45" transform="rotate(140.476 1674.17 368.367)" fill="#F7DBEC"/>
<rect x="1674.17" y="368.367" width="46.9" height="8.9" rx="4.45" transform="rotate(140.476 1674.17 368.367)" fill="#F3E0B0"/>
<rect x="1674.17" y="368.367" width="46.9" height="8.9" rx="4.45" transform="rotate(140.476 1674.17 368.367)" stroke="black" stroke-width="0.1"/>
<rect x="26.4395" y="111.963" width="46.9" height="8.9" rx="4.45" transform="rotate(112.793 26.4395 111.963)" fill="#F7DBEC"/>
<rect x="26.4395" y="111.963" width="46.9" height="8.9" rx="4.45" transform="rotate(112.793 26.4395 111.963)" fill="#F3E0B0"/>
<rect x="26.4395" y="111.963" width="46.9" height="8.9" rx="4.45" transform="rotate(112.793 26.4395 111.963)" stroke="black" stroke-width="0.1"/>
<rect x="616.708" y="169.937" width="46.9" height="8.9" rx="4.45" transform="rotate(-1.28906 616.708 169.937)" fill="#F7DBEC"/>
<rect x="616.708" y="169.937" width="46.9" height="8.9" rx="4.45" transform="rotate(-1.28906 616.708 169.937)" fill="#F3E0B0"/>
<rect x="616.708" y="169.937" width="46.9" height="8.9" rx="4.45" transform="rotate(-1.28906 616.708 169.937)" stroke="black" stroke-width="0.1"/>
<path d="M1399.49 454.317C1401.74 455.305 1402.76 457.93 1401.78 460.181L1386.5 494.977C1385.52 497.227 1382.89 498.251 1380.64 497.263C1378.39 496.275 1377.37 493.65 1378.35 491.4L1393.63 456.604C1394.61 454.353 1397.24 453.33 1399.49 454.317Z" fill="#F7DBEC"/>
<path d="M1399.49 454.317C1401.74 455.305 1402.76 457.93 1401.78 460.181L1386.5 494.977C1385.52 497.227 1382.89 498.251 1380.64 497.263C1378.39 496.275 1377.37 493.65 1378.35 491.4L1393.63 456.604C1394.61 454.353 1397.24 453.33 1399.49 454.317Z" fill="#A57E56"/>
<path d="M1399.49 454.317C1401.74 455.305 1402.76 457.93 1401.78 460.181L1386.5 494.977C1385.52 497.227 1382.89 498.251 1380.64 497.263C1378.39 496.275 1377.37 493.65 1378.35 491.4L1393.63 456.604C1394.61 454.353 1397.24 453.33 1399.49 454.317Z" stroke="black" stroke-width="0.1"/>
<path d="M1039.99 156.854C1042.24 157.842 1043.26 160.467 1042.28 162.718L1027 197.513C1026.02 199.764 1023.39 200.787 1021.14 199.8C1018.89 198.812 1017.87 196.187 1018.85 193.936L1034.13 159.141C1035.11 156.89 1037.74 155.867 1039.99 156.854Z" fill="#F7DBEC"/>
<path d="M1039.99 156.854C1042.24 157.842 1043.26 160.467 1042.28 162.718L1027 197.513C1026.02 199.764 1023.39 200.787 1021.14 199.8C1018.89 198.812 1017.87 196.187 1018.85 193.936L1034.13 159.141C1035.11 156.89 1037.74 155.867 1039.99 156.854Z" fill="#A57E56"/>
<path d="M1039.99 156.854C1042.24 157.842 1043.26 160.467 1042.28 162.718L1027 197.513C1026.02 199.764 1023.39 200.787 1021.14 199.8C1018.89 198.812 1017.87 196.187 1018.85 193.936L1034.13 159.141C1035.11 156.89 1037.74 155.867 1039.99 156.854Z" stroke="black" stroke-width="0.1"/>
<rect x="1080.29" y="666.635" width="46.9" height="8.9" rx="4.45" transform="rotate(-13.2854 1080.29 666.635)" fill="#F7DBEC"/>
<rect x="1080.29" y="666.635" width="46.9" height="8.9" rx="4.45" transform="rotate(-13.2854 1080.29 666.635)" fill="#A57E56"/>
<rect x="1080.29" y="666.635" width="46.9" height="8.9" rx="4.45" transform="rotate(-13.2854 1080.29 666.635)" stroke="black" stroke-width="0.1"/>
<path d="M1224.52 411.331C1223.97 409.555 1224.72 407.631 1226.34 406.71L1260.06 387.502C1262.25 386.254 1265.03 387.348 1265.79 389.754C1266.35 391.53 1265.59 393.454 1263.97 394.375L1230.26 413.583C1228.06 414.831 1225.28 413.737 1224.52 411.331Z" fill="#F7DBEC"/>
<path d="M1224.52 411.331C1223.97 409.555 1224.72 407.631 1226.34 406.71L1260.06 387.502C1262.25 386.254 1265.03 387.348 1265.79 389.754C1266.35 391.53 1265.59 393.454 1263.97 394.375L1230.26 413.583C1228.06 414.831 1225.28 413.737 1224.52 411.331Z" fill="#A57E56"/>
<path d="M1224.52 411.331C1223.97 409.555 1224.72 407.631 1226.34 406.71L1260.06 387.502C1262.25 386.254 1265.03 387.348 1265.79 389.754C1266.35 391.53 1265.59 393.454 1263.97 394.375L1230.26 413.583C1228.06 414.831 1225.28 413.737 1224.52 411.331Z" stroke="black" stroke-width="0.1"/>
<rect x="1523.07" y="171.223" width="46.9" height="8.9" rx="4.45" transform="rotate(91.1782 1523.07 171.223)" fill="#F7DBEC"/>
<rect x="1523.07" y="171.223" width="46.9" height="8.9" rx="4.45" transform="rotate(91.1782 1523.07 171.223)" fill="#A57E56"/>
<rect x="1523.07" y="171.223" width="46.9" height="8.9" rx="4.45" transform="rotate(91.1782 1523.07 171.223)" stroke="black" stroke-width="0.1"/>
<rect x="476.1" y="622.16" width="46.9" height="8.9" rx="4.45" transform="rotate(140.681 476.1 622.16)" fill="#F7DBEC"/>
<rect x="476.1" y="622.16" width="46.9" height="8.9" rx="4.45" transform="rotate(140.681 476.1 622.16)" fill="#A57E56"/>
<rect x="476.1" y="622.16" width="46.9" height="8.9" rx="4.45" transform="rotate(140.681 476.1 622.16)" stroke="black" stroke-width="0.1"/>
<rect x="688.337" y="493.962" width="46.9" height="8.9" rx="4.45" transform="rotate(-131.809 688.337 493.962)" fill="#F7DBEC"/>
<rect x="688.337" y="493.962" width="46.9" height="8.9" rx="4.45" transform="rotate(-131.809 688.337 493.962)" fill="#A57E56"/>
<rect x="688.337" y="493.962" width="46.9" height="8.9" rx="4.45" transform="rotate(-131.809 688.337 493.962)" stroke="black" stroke-width="0.1"/>
<rect x="338.383" y="341.071" width="46.9" height="8.9" rx="4.45" transform="rotate(44.0636 338.383 341.071)" fill="#F7DBEC"/>
<rect x="338.383" y="341.071" width="46.9" height="8.9" rx="4.45" transform="rotate(44.0636 338.383 341.071)" fill="#A57E56"/>
<rect x="338.383" y="341.071" width="46.9" height="8.9" rx="4.45" transform="rotate(44.0636 338.383 341.071)" stroke="black" stroke-width="0.1"/>
<rect x="102.977" y="97.7792" width="46.9" height="8.9" rx="4.45" transform="rotate(83.6722 102.977 97.7792)" fill="#F7DBEC"/>
<rect x="102.977" y="97.7792" width="46.9" height="8.9" rx="4.45" transform="rotate(83.6722 102.977 97.7792)" fill="#A57E56"/>
<rect x="102.977" y="97.7792" width="46.9" height="8.9" rx="4.45" transform="rotate(83.6722 102.977 97.7792)" stroke="black" stroke-width="0.1"/>
<rect x="90.6301" y="407.35" width="46.9" height="8.9" rx="4.45" transform="rotate(159.056 90.6301 407.35)" fill="#F7DBEC"/>
<rect x="90.6301" y="407.35" width="46.9" height="8.9" rx="4.45" transform="rotate(159.056 90.6301 407.35)" fill="#A57E56"/>
<rect x="90.6301" y="407.35" width="46.9" height="8.9" rx="4.45" transform="rotate(159.056 90.6301 407.35)" stroke="black" stroke-width="0.1"/>
<path d="M1796.29 348.509C1796.43 346.055 1798.52 344.173 1800.98 344.306L1838.92 346.357C1841.38 346.489 1843.26 348.586 1843.12 351.04C1842.99 353.495 1840.89 355.376 1838.44 355.244L1800.5 353.193C1798.04 353.06 1796.16 350.963 1796.29 348.509Z" fill="#F7DBEC"/>
<path d="M1796.29 348.509C1796.43 346.055 1798.52 344.173 1800.98 344.306L1838.92 346.357C1841.38 346.489 1843.26 348.586 1843.12 351.04C1842.99 353.495 1840.89 355.376 1838.44 355.244L1800.5 353.193C1798.04 353.06 1796.16 350.963 1796.29 348.509Z" fill="#A57E56"/>
<path d="M1796.29 348.509C1796.43 346.055 1798.52 344.173 1800.98 344.306L1838.92 346.357C1841.38 346.489 1843.26 348.586 1843.12 351.04C1842.99 353.495 1840.89 355.376 1838.44 355.244L1800.5 353.193C1798.04 353.06 1796.16 350.963 1796.29 348.509Z" stroke="black" stroke-width="0.1"/>
<rect x="506.136" y="140.943" width="46.9" height="8.9" rx="4.45" transform="rotate(109.43 506.136 140.943)" fill="#F7DBEC"/>
<rect x="506.136" y="140.943" width="46.9" height="8.9" rx="4.45" transform="rotate(109.43 506.136 140.943)" fill="#A57E56"/>
<rect x="506.136" y="140.943" width="46.9" height="8.9" rx="4.45" transform="rotate(109.43 506.136 140.943)" stroke="black" stroke-width="0.1"/>
<rect x="1413.87" y="345.161" width="46.9" height="8.9" rx="4.45" transform="rotate(-31.8231 1413.87 345.161)" fill="#F7DBEC"/>
<rect x="1413.87" y="345.161" width="46.9" height="8.9" rx="4.45" transform="rotate(-31.8231 1413.87 345.161)" fill="#F7DBEC"/>
<rect x="1413.87" y="345.161" width="46.9" height="8.9" rx="4.45" transform="rotate(-31.8231 1413.87 345.161)" stroke="black" stroke-width="0.1"/>
<rect x="1451.08" y="638.192" width="46.9" height="8.9" rx="4.45" transform="rotate(-139.494 1451.08 638.192)" fill="#F7DBEC"/>
<rect x="1451.08" y="638.192" width="46.9" height="8.9" rx="4.45" transform="rotate(-139.494 1451.08 638.192)" fill="#F7DBEC"/>
<rect x="1451.08" y="638.192" width="46.9" height="8.9" rx="4.45" transform="rotate(-139.494 1451.08 638.192)" stroke="black" stroke-width="0.1"/>
<rect x="19.3832" y="298.071" width="46.9" height="8.9" rx="4.45" transform="rotate(44.0636 19.3832 298.071)" fill="#F7DBEC"/>
<rect x="19.3832" y="298.071" width="46.9" height="8.9" rx="4.45" transform="rotate(44.0636 19.3832 298.071)" fill="#F7DBEC"/>
<rect x="19.3832" y="298.071" width="46.9" height="8.9" rx="4.45" transform="rotate(44.0636 19.3832 298.071)" stroke="black" stroke-width="0.1"/>
<rect x="1731.67" y="213.281" width="46.9" height="8.9" rx="4.45" transform="rotate(143.702 1731.67 213.281)" fill="#F7DBEC"/>
<rect x="1731.67" y="213.281" width="46.9" height="8.9" rx="4.45" transform="rotate(143.702 1731.67 213.281)" fill="#F7DBEC"/>
<rect x="1731.67" y="213.281" width="46.9" height="8.9" rx="4.45" transform="rotate(143.702 1731.67 213.281)" stroke="black" stroke-width="0.1"/>
<rect x="520.745" y="480.06" width="46.9" height="8.9" rx="4.45" transform="rotate(77.388 520.745 480.06)" fill="#F7DBEC"/>
<rect x="520.745" y="480.06" width="46.9" height="8.9" rx="4.45" transform="rotate(77.388 520.745 480.06)" fill="#F7DBEC"/>
<rect x="520.745" y="480.06" width="46.9" height="8.9" rx="4.45" transform="rotate(77.388 520.745 480.06)" stroke="black" stroke-width="0.1"/>
<rect x="1190.13" y="480.636" width="46.9" height="8.9" rx="4.45" transform="rotate(93.7567 1190.13 480.636)" fill="#F7DBEC"/>
<rect x="1190.13" y="480.636" width="46.9" height="8.9" rx="4.45" transform="rotate(93.7567 1190.13 480.636)" fill="#F7DBEC"/>
<rect x="1190.13" y="480.636" width="46.9" height="8.9" rx="4.45" transform="rotate(93.7567 1190.13 480.636)" stroke="black" stroke-width="0.1"/>
<rect x="1234.37" y="151.8" width="46.9" height="8.9" rx="4.45" transform="rotate(55.0893 1234.37 151.8)" fill="#F7DBEC"/>
<rect x="1234.37" y="151.8" width="46.9" height="8.9" rx="4.45" transform="rotate(55.0893 1234.37 151.8)" fill="#F7DBEC"/>
<rect x="1234.37" y="151.8" width="46.9" height="8.9" rx="4.45" transform="rotate(55.0893 1234.37 151.8)" stroke="black" stroke-width="0.1"/>
<rect x="799.652" y="565.798" width="46.9" height="8.9" rx="4.45" transform="rotate(122.097 799.652 565.798)" fill="#F7DBEC"/>
<rect x="799.652" y="565.798" width="46.9" height="8.9" rx="4.45" transform="rotate(122.097 799.652 565.798)" fill="#F7DBEC"/>
<rect x="799.652" y="565.798" width="46.9" height="8.9" rx="4.45" transform="rotate(122.097 799.652 565.798)" stroke="black" stroke-width="0.1"/>
<rect x="611.886" y="22.4196" width="46.9" height="8.9" rx="4.45" transform="rotate(119.271 611.886 22.4196)" fill="#F7DBEC"/>
<rect x="611.886" y="22.4196" width="46.9" height="8.9" rx="4.45" transform="rotate(119.271 611.886 22.4196)" fill="#F7DBEC"/>
<rect x="611.886" y="22.4196" width="46.9" height="8.9" rx="4.45" transform="rotate(119.271 611.886 22.4196)" stroke="black" stroke-width="0.1"/>
<rect x="252.403" y="170.065" width="46.9" height="8.9" rx="4.45" transform="rotate(67.3695 252.403 170.065)" fill="#F7DBEC"/>
<rect x="252.403" y="170.065" width="46.9" height="8.9" rx="4.45" transform="rotate(67.3695 252.403 170.065)" fill="#F7DBEC"/>
<rect x="252.403" y="170.065" width="46.9" height="8.9" rx="4.45" transform="rotate(67.3695 252.403 170.065)" stroke="black" stroke-width="0.1"/>
</svg>
