<svg width="1094" height="1080" viewBox="0 0 1094 1080" fill="none" xmlns="http://www.w3.org/2000/svg">
<g filter="url(#filter0_d)">
<path d="M63 221H772V888H63V221Z" fill="#FFF6DF"/>
<path d="M63.5 221.5H771.5V887.5H63.5V221.5Z" stroke="black"/>
</g>
<path d="M62.7683 368.398L245.768 224.898" stroke="#CFB87E" stroke-opacity="0.56"/>
<path d="M592.768 223.398L771.978 371.605" stroke="#CFB87E" stroke-opacity="0.56"/>
<line x1="710.471" y1="888.996" x2="771.471" y2="843.996" stroke="#CFB87E" stroke-opacity="0.56"/>
<line x1="576.464" y1="889.001" x2="769.464" y2="741.001" stroke="#CFB87E" stroke-opacity="0.56"/>
<line x1="62.4459" y1="276.016" x2="126.446" y2="222.016" stroke="#CFB87E" stroke-opacity="0.56"/>
<line x1="703.07" y1="221.999" x2="769.838" y2="272.537" stroke="#CFB87E" stroke-opacity="0.56"/>
<path d="M61.4639 758.898L645.268 221.399M65.268 888.398L771.768 221.398M300.768 888.398L773.572 482.899M187.268 888.398L771.072 350.898M313.768 221.398L771.072 621.899M61.464 621.898L526.268 221.398M211.268 221.399L771.072 758.899M64.7684 221.399L771.072 888.398M65.2681 731.398L212.768 888.398M61.464 343.398L603.768 888.398M65.2681 460.398L484.768 888.398M61.464 600.398L350.268 888.398M61.464 852.898L95.2684 888.398" stroke="#CFB87E" stroke-opacity="0.56"/>
<path d="M62.4641 495.001L395.768 223.398" stroke="#CFB87E" stroke-opacity="0.56"/>
<path d="M443.768 223.834L771.447 502.199" stroke="#CFB87E" stroke-opacity="0.56"/>
<path d="M436.5 889.001L769.805 617.398" stroke="#CFB87E" stroke-opacity="0.56"/>
<defs>
<filter id="filter0_d" x="59" y="221" width="717" height="675" filterUnits="userSpaceOnUse" color-interpolation-filters="sRGB">
<feFlood flood-opacity="0" result="BackgroundImageFix"/>
<feColorMatrix in="SourceAlpha" type="matrix" values="0 0 0 0 0 0 0 0 0 0 0 0 0 0 0 0 0 0 127 0"/>
<feOffset dy="4"/>
<feGaussianBlur stdDeviation="2"/>
<feColorMatrix type="matrix" values="0 0 0 0 0 0 0 0 0 0 0 0 0 0 0 0 0 0 0.25 0"/>
<feBlend mode="normal" in2="BackgroundImageFix" result="effect1_dropShadow"/>
<feBlend mode="normal" in="SourceGraphic" in2="effect1_dropShadow" result="shape"/>
</filter>
</defs>
</svg>
